<?xml version="1.0" encoding="iso-8859-1"?>
<!-- Generator: Adobe Illustrator 19.0.0, SVG Export Plug-In . SVG Version: 6.00 Build 0)  -->
<svg version="1.1" id="Capa_1" xmlns="http://www.w3.org/2000/svg" xmlns:xlink="http://www.w3.org/1999/xlink" x="0px" y="0px"
	 viewBox="0 0 512 512" style="enable-background:new 0 0 512 512;" xml:space="preserve">
<g>
	<g>
		<path d="M511.151,242c-4.777-28.339-29.475-50-59.151-50c-17.908,0-33.997,7.896-45,20.377C395.997,199.896,379.908,192,362,192
			c-17.908,0-33.997,7.896-45,20.377C305.997,199.896,289.908,192,272,192c-3.363,0-6.698,0.287-9.977,0.837L247.616,110H221
			c0-5.514,4.486-10,10-10h48c22.056,0,40-17.944,40-40c0-5.514,4.486-10,10-10h85V20h-85c-5.303,0-10.364,1.047-15,2.929V0h-85
			c-22.056,0-40,17.944-40,40c0,5.514-4.486,10-10,10h-48c-22.056,0-40,17.944-40,40v20H72.384l-40,230H0v172h512V242H511.151z
			 M452,222c13.036,0,24.152,8.361,28.28,20h-56.56C427.848,230.361,438.964,222,452,222z M362,222c13.036,0,24.152,8.361,28.28,20
			h-56.56C337.848,230.361,348.964,222,362,222z M272,222c13.036,0,24.152,8.361,28.28,20h-29.707l-3.408-19.596
			C268.755,222.146,270.369,222,272,222z M121,90c0-5.514,4.486-10,10-10h48c22.056,0,40-17.944,40-40c0-5.514,4.486-10,10-10
			h73.585C294.264,37.335,289,48.062,289,60c0,5.514-4.486,10-10,10h-48c-22.056,0-40,17.944-40,40h-70V90z M97.616,140h124.768
			l34.782,200H62.834L97.616,140z M290,482H30V370h260V482z M482,482H320V340h-32.383l-11.826-68H482V482z"/>
	</g>
</g>
<g>
	<g>
		<rect x="350" y="70" width="86" height="30"/>
	</g>
</g>
<g>
	<g>
		<rect x="432" y="20" width="80" height="30"/>
	</g>
</g>
<g>
	<g>
		<rect x="432" y="312" width="30" height="130"/>
	</g>
</g>
<g>
	<g>
		<rect x="352" y="312" width="30" height="130"/>
	</g>
</g>
<g>
	<g>
		<rect x="65" y="411" width="190" height="30"/>
	</g>
</g>
<g>
</g>
<g>
</g>
<g>
</g>
<g>
</g>
<g>
</g>
<g>
</g>
<g>
</g>
<g>
</g>
<g>
</g>
<g>
</g>
<g>
</g>
<g>
</g>
<g>
</g>
<g>
</g>
<g>
</g>
</svg>
